<?xml version="1.0" encoding="utf-8"?>
<!-- Generator: Adobe Illustrator 16.0.5, SVG Export Plug-In . SVG Version: 6.00 Build 0)  -->
<!DOCTYPE svg PUBLIC "-//W3C//DTD SVG 1.1//EN" "http://www.w3.org/Graphics/SVG/1.1/DTD/svg11.dtd">
<svg version="1.1" id="Layer_1" xmlns="http://www.w3.org/2000/svg" xmlns:xlink="http://www.w3.org/1999/xlink" x="0px" y="0px"
	 width="230px" height="125px" viewBox="0 0 230 125" enable-background="new 0 0 230 125" xml:space="preserve">
<g>
	<g>
		<path fill="#6C567B" d="M0,82.196h10.909v17.368l13.947-17.368h12.496L20.51,102.538l17.973,21.477H25.985l-15.076-18.5v18.5H0
			V82.196z"/>
		<path fill="#6C567B" d="M46.145,121.431c-3.572-1.688-6.338-4.124-8.302-7.258c-1.965-3.135-2.947-6.838-2.947-11.084
			c0-4.243,0.982-8.021,2.947-11.312c1.964-3.296,4.64-5.846,8.033-7.651c3.39-1.806,7.192-2.71,11.395-2.71
			c4.167,0,7.944,0.901,11.336,2.708c3.393,1.806,6.061,4.351,8.003,7.646c1.944,3.291,2.917,7.061,2.917,11.305
			c0,2.378-0.563,4.802-1.695,7.122c-1.131,2.319-2.531,3.817-4.194,5.636h7.272v8.182H58.581
			C53.856,124.015,49.713,123.117,46.145,121.431z M63.044,113.489c1.744-0.952,3.134-2.321,4.164-4.107
			c1.032-1.785,1.547-3.867,1.547-6.245c0-2.384-0.504-4.455-1.517-6.22c-1.013-1.766-2.392-3.135-4.137-4.108
			c-1.747-0.969-3.689-1.458-5.832-1.458c-2.181,0-4.147,0.489-5.891,1.458c-1.747,0.974-3.123,2.343-4.135,4.108
			c-1.012,1.765-1.519,3.836-1.519,6.22c0,2.378,0.507,4.46,1.519,6.245c1.012,1.786,2.402,3.155,4.165,4.107
			c1.765,0.951,3.719,1.426,5.861,1.426C59.373,114.915,61.299,114.44,63.044,113.489z"/>
		<path fill="#6C567B" d="M88.363,119.766c-3.173-3.35-4.727-7.782-4.727-13.298V82.196h10.909v24.391
			c0,2.777,0.524,4.88,2.011,6.308c1.489,1.428,3.43,2.144,6.047,2.144c2.619,0,4.648-0.716,6.116-2.144
			c1.469-1.428,2.19-3.53,2.19-6.308V82.196h10v24.271c0,5.554-1.351,9.998-4.507,13.33c-3.155,3.33-7.737,4.999-14.005,4.999
			C96.131,124.797,91.538,123.119,88.363,119.766z"/>
		<path fill="#6C567B" d="M126.363,82.196h30v9.091h-19.091v7.272h13.637v9.091h-13.637v7.273h19.091v9.091h-30V82.196z"/>
		<path fill="#6C567B" d="M160,82.196h30v9.091h-19.091v7.272h13.637v9.091h-13.637v7.273H190v9.091h-30V82.196z"/>
		<path fill="#6C567B" d="M193.637,82.196h10.555l14.899,24.866V82.196H230v41.818h-10.337l-15.117-24.926v24.926h-10.909V82.196z"
			/>
	</g>
	<g>
		<polygon fill="#F9B573" points="68.934,55.203 69.691,60.203 73.654,60.203 77.064,60.203 115,60.203 115,55.203 		"/>
		<polygon fill="#F29C57" points="115,55.203 115,60.203 153.024,60.203 156.435,60.203 160.397,60.203 161.155,55.203 		"/>
		<polygon fill="#F29C57" points="100.924,47.203 63.667,24.008 63.681,23.981 87.014,47.203 		"/>
		<polygon fill="#F9B573" points="87.014,47.203 63.681,23.87 67.569,47.203 		"/>
		<polygon fill="#F9B573" points="129.397,47.203 143.377,47.203 166.162,24.419 		"/>
		<polygon fill="#F29C57" points="143.377,47.203 162.519,47.203 166.333,24.537 166.162,24.531 		"/>
		<polygon fill="#F9B573" points="89.821,29.961 115,45.788 115,0.203 		"/>
		<polygon fill="#F29C57" points="115,0.203 115,45.788 115.072,45.819 140.35,30.148 		"/>
	</g>
</g>
</svg>
