<?xml version="1.0" encoding="utf-8"?>
<!-- Generator: Adobe Illustrator 16.0.5, SVG Export Plug-In . SVG Version: 6.00 Build 0)  -->
<!DOCTYPE svg PUBLIC "-//W3C//DTD SVG 1.1//EN" "http://www.w3.org/Graphics/SVG/1.1/DTD/svg11.dtd">
<svg version="1.1" id="Layer_1" xmlns="http://www.w3.org/2000/svg" xmlns:xlink="http://www.w3.org/1999/xlink" x="0px" y="0px"
   width="161px" height="30px" viewBox="0 0 161 30" enable-background="new 0 0 161 30" xml:space="preserve">
<g>
  <path fill="#FFFFFF" d="M65.16,7.324h4.526v7.207l5.787-7.207h5.185l-6.988,8.44l7.458,8.912h-5.186L69.687,17v7.676H65.16V7.324z"
    />
  <path fill="#FFFFFF" d="M84.307,23.604c-1.482-0.701-2.63-1.711-3.444-3.013c-0.815-1.3-1.223-2.837-1.223-4.598
    c0-1.761,0.408-3.329,1.223-4.694c0.814-1.368,1.925-2.425,3.333-3.174C85.602,7.375,87.18,7,88.923,7
    c1.729,0,3.296,0.374,4.704,1.124c1.407,0.749,2.515,1.806,3.321,3.172c0.806,1.366,1.209,2.93,1.209,4.691
    c0,0.986-0.232,1.992-0.702,2.954c-0.47,0.963-1.051,1.585-1.741,2.34h3.018v3.395h-9.264
    C87.506,24.676,85.788,24.303,84.307,23.604z M91.319,20.308c0.724-0.395,1.301-0.963,1.728-1.703
    c0.428-0.741,0.643-1.604,0.643-2.593s-0.21-1.847-0.63-2.58s-0.992-1.3-1.717-1.704c-0.725-0.402-1.53-0.605-2.419-0.605
    c-0.905,0-1.72,0.203-2.445,0.605c-0.724,0.404-1.295,0.971-1.715,1.704c-0.419,0.733-0.63,1.592-0.63,2.58s0.211,1.852,0.63,2.593
    c0.42,0.74,0.997,1.309,1.728,1.703c0.732,0.396,1.543,0.593,2.432,0.593C89.795,20.9,90.595,20.703,91.319,20.308z"/>
  <path fill="#FFFFFF" d="M101.824,22.912c-1.316-1.39-1.961-3.229-1.961-5.518V7.324h4.526v10.12c0,1.152,0.218,2.025,0.835,2.618
    c0.618,0.592,1.423,0.889,2.509,0.889c1.087,0,1.929-0.297,2.537-0.889c0.61-0.593,0.909-1.466,0.909-2.618V7.324h4.149v10.071
    c0,2.305-0.561,4.148-1.869,5.531c-1.311,1.382-3.21,2.074-5.812,2.074C105.048,25,103.142,24.304,101.824,22.912z"/>
  <path fill="#FFFFFF" d="M117.592,7.324h12.448v3.772h-7.921v3.018h5.658v3.772h-5.658v3.018h7.921v3.772h-12.448V7.324z"/>
  <path fill="#FFFFFF" d="M131.549,7.324h12.448v3.772h-7.922v3.018h5.659v3.772h-5.659v3.018h7.922v3.772h-12.448V7.324z"/>
  <path fill="#FFFFFF" d="M145.506,7.324h4.379l6.183,10.318V7.324h4.527v17.352h-4.289l-6.273-10.342v10.342h-4.526V7.324z"/>
</g>
<polygon fill="#FFB573" points="3.03,27.735 3.408,30 5.382,30 7.081,30 26.004,30 26.004,27.735 "/>
<polygon fill="#F79C57" points="26.004,27.735 26.004,30 44.927,30 46.625,30 48.6,30 48.977,27.735 "/>
<polygon fill="#F79C57" points="18.969,23.658 0.406,11.981 0.413,12.028 12.039,23.658 "/>
<polygon fill="#FFB573" points="12.039,23.658 0.413,12.033 2.351,23.658 "/>
<polygon fill="#FFB573" points="33.155,23.658 40.12,23.658 51.472,12.307 "/>
<polygon fill="#F79C57" points="40.12,23.658 49.656,23.658 51.557,12.244 51.472,12.303 "/>
<polygon fill="#FFB573" points="13.459,14.826 26.004,22.712 26.004,0 "/>
<polygon fill="#F79C57" points="26.004,0 26.004,22.712 26.028,22.727 38.628,14.919 "/>
</svg>
